<svg viewBox="0 0 900 560" xmlns="http://www.w3.org/2000/svg" font-family="IBM Plex Mono, monospace">
<rect width="900" height="560" fill="#fffdf8"/>
<text x="140.0" y="30" font-size="16" font-weight="700" fill="#2b2620" text-anchor="middle">Lead V1</text>
<text x="360.0" y="30" font-size="16" font-weight="700" fill="#2b2620" text-anchor="middle">Lead V6</text>
<text x="20" y="130" font-size="15" font-weight="700" fill="#b5602f" transform="rotate(-90 20 130)" text-anchor="middle">RBBB</text>
<text x="20" y="370" font-size="15" font-weight="700" fill="#7c5a9d" transform="rotate(-90 20 370)" text-anchor="middle">LBBB</text>
<line x1="40" y1="55" x2="40" y2="225" stroke="#e8b9b9" stroke-width="1.5"/>
<line x1="48" y1="55" x2="48" y2="225" stroke="#f3dede" stroke-width="0.8"/>
<line x1="56" y1="55" x2="56" y2="225" stroke="#f3dede" stroke-width="0.8"/>
<line x1="64" y1="55" x2="64" y2="225" stroke="#f3dede" stroke-width="0.8"/>
<line x1="72" y1="55" x2="72" y2="225" stroke="#f3dede" stroke-width="0.8"/>
<line x1="80" y1="55" x2="80" y2="225" stroke="#e8b9b9" stroke-width="1.5"/>
<line x1="88" y1="55" x2="88" y2="225" stroke="#f3dede" stroke-width="0.8"/>
<line x1="96" y1="55" x2="96" y2="225" stroke="#f3dede" stroke-width="0.8"/>
<line x1="104" y1="55" x2="104" y2="225" stroke="#f3dede" stroke-width="0.8"/>
<line x1="112" y1="55" x2="112" y2="225" stroke="#f3dede" stroke-width="0.8"/>
<line x1="120" y1="55" x2="120" y2="225" stroke="#e8b9b9" stroke-width="1.5"/>
<line x1="128" y1="55" x2="128" y2="225" stroke="#f3dede" stroke-width="0.8"/>
<line x1="136" y1="55" x2="136" y2="225" stroke="#f3dede" stroke-width="0.8"/>
<line x1="144" y1="55" x2="144" y2="225" stroke="#f3dede" stroke-width="0.8"/>
<line x1="152" y1="55" x2="152" y2="225" stroke="#f3dede" stroke-width="0.8"/>
<line x1="160" y1="55" x2="160" y2="225" stroke="#e8b9b9" stroke-width="1.5"/>
<line x1="168" y1="55" x2="168" y2="225" stroke="#f3dede" stroke-width="0.8"/>
<line x1="176" y1="55" x2="176" y2="225" stroke="#f3dede" stroke-width="0.8"/>
<line x1="184" y1="55" x2="184" y2="225" stroke="#f3dede" stroke-width="0.8"/>
<line x1="192" y1="55" x2="192" y2="225" stroke="#f3dede" stroke-width="0.8"/>
<line x1="200" y1="55" x2="200" y2="225" stroke="#e8b9b9" stroke-width="1.5"/>
<line x1="208" y1="55" x2="208" y2="225" stroke="#f3dede" stroke-width="0.8"/>
<line x1="216" y1="55" x2="216" y2="225" stroke="#f3dede" stroke-width="0.8"/>
<line x1="224" y1="55" x2="224" y2="225" stroke="#f3dede" stroke-width="0.8"/>
<line x1="232" y1="55" x2="232" y2="225" stroke="#f3dede" stroke-width="0.8"/>
<line x1="40" y1="55" x2="240" y2="55" stroke="#e8b9b9" stroke-width="1.5"/>
<line x1="40" y1="63" x2="240" y2="63" stroke="#f3dede" stroke-width="0.8"/>
<line x1="40" y1="71" x2="240" y2="71" stroke="#f3dede" stroke-width="0.8"/>
<line x1="40" y1="79" x2="240" y2="79" stroke="#f3dede" stroke-width="0.8"/>
<line x1="40" y1="87" x2="240" y2="87" stroke="#f3dede" stroke-width="0.8"/>
<line x1="40" y1="95" x2="240" y2="95" stroke="#e8b9b9" stroke-width="1.5"/>
<line x1="40" y1="103" x2="240" y2="103" stroke="#f3dede" stroke-width="0.8"/>
<line x1="40" y1="111" x2="240" y2="111" stroke="#f3dede" stroke-width="0.8"/>
<line x1="40" y1="119" x2="240" y2="119" stroke="#f3dede" stroke-width="0.8"/>
<line x1="40" y1="127" x2="240" y2="127" stroke="#f3dede" stroke-width="0.8"/>
<line x1="40" y1="135" x2="240" y2="135" stroke="#e8b9b9" stroke-width="1.5"/>
<line x1="40" y1="143" x2="240" y2="143" stroke="#f3dede" stroke-width="0.8"/>
<line x1="40" y1="151" x2="240" y2="151" stroke="#f3dede" stroke-width="0.8"/>
<line x1="40" y1="159" x2="240" y2="159" stroke="#f3dede" stroke-width="0.8"/>
<line x1="40" y1="167" x2="240" y2="167" stroke="#f3dede" stroke-width="0.8"/>
<line x1="40" y1="175" x2="240" y2="175" stroke="#e8b9b9" stroke-width="1.5"/>
<line x1="40" y1="183" x2="240" y2="183" stroke="#f3dede" stroke-width="0.8"/>
<line x1="40" y1="191" x2="240" y2="191" stroke="#f3dede" stroke-width="0.8"/>
<line x1="40" y1="199" x2="240" y2="199" stroke="#f3dede" stroke-width="0.8"/>
<line x1="40" y1="207" x2="240" y2="207" stroke="#f3dede" stroke-width="0.8"/>
<line x1="40" y1="215" x2="240" y2="215" stroke="#e8b9b9" stroke-width="1.5"/>
<line x1="40" y1="223" x2="240" y2="223" stroke="#f3dede" stroke-width="0.8"/>
<line x1="260" y1="55" x2="260" y2="225" stroke="#e8b9b9" stroke-width="1.5"/>
<line x1="268" y1="55" x2="268" y2="225" stroke="#f3dede" stroke-width="0.8"/>
<line x1="276" y1="55" x2="276" y2="225" stroke="#f3dede" stroke-width="0.8"/>
<line x1="284" y1="55" x2="284" y2="225" stroke="#f3dede" stroke-width="0.8"/>
<line x1="292" y1="55" x2="292" y2="225" stroke="#f3dede" stroke-width="0.8"/>
<line x1="300" y1="55" x2="300" y2="225" stroke="#e8b9b9" stroke-width="1.5"/>
<line x1="308" y1="55" x2="308" y2="225" stroke="#f3dede" stroke-width="0.8"/>
<line x1="316" y1="55" x2="316" y2="225" stroke="#f3dede" stroke-width="0.8"/>
<line x1="324" y1="55" x2="324" y2="225" stroke="#f3dede" stroke-width="0.8"/>
<line x1="332" y1="55" x2="332" y2="225" stroke="#f3dede" stroke-width="0.8"/>
<line x1="340" y1="55" x2="340" y2="225" stroke="#e8b9b9" stroke-width="1.5"/>
<line x1="348" y1="55" x2="348" y2="225" stroke="#f3dede" stroke-width="0.8"/>
<line x1="356" y1="55" x2="356" y2="225" stroke="#f3dede" stroke-width="0.8"/>
<line x1="364" y1="55" x2="364" y2="225" stroke="#f3dede" stroke-width="0.8"/>
<line x1="372" y1="55" x2="372" y2="225" stroke="#f3dede" stroke-width="0.8"/>
<line x1="380" y1="55" x2="380" y2="225" stroke="#e8b9b9" stroke-width="1.5"/>
<line x1="388" y1="55" x2="388" y2="225" stroke="#f3dede" stroke-width="0.8"/>
<line x1="396" y1="55" x2="396" y2="225" stroke="#f3dede" stroke-width="0.8"/>
<line x1="404" y1="55" x2="404" y2="225" stroke="#f3dede" stroke-width="0.8"/>
<line x1="412" y1="55" x2="412" y2="225" stroke="#f3dede" stroke-width="0.8"/>
<line x1="420" y1="55" x2="420" y2="225" stroke="#e8b9b9" stroke-width="1.5"/>
<line x1="428" y1="55" x2="428" y2="225" stroke="#f3dede" stroke-width="0.8"/>
<line x1="436" y1="55" x2="436" y2="225" stroke="#f3dede" stroke-width="0.8"/>
<line x1="444" y1="55" x2="444" y2="225" stroke="#f3dede" stroke-width="0.8"/>
<line x1="452" y1="55" x2="452" y2="225" stroke="#f3dede" stroke-width="0.8"/>
<line x1="260" y1="55" x2="460" y2="55" stroke="#e8b9b9" stroke-width="1.5"/>
<line x1="260" y1="63" x2="460" y2="63" stroke="#f3dede" stroke-width="0.8"/>
<line x1="260" y1="71" x2="460" y2="71" stroke="#f3dede" stroke-width="0.8"/>
<line x1="260" y1="79" x2="460" y2="79" stroke="#f3dede" stroke-width="0.8"/>
<line x1="260" y1="87" x2="460" y2="87" stroke="#f3dede" stroke-width="0.8"/>
<line x1="260" y1="95" x2="460" y2="95" stroke="#e8b9b9" stroke-width="1.5"/>
<line x1="260" y1="103" x2="460" y2="103" stroke="#f3dede" stroke-width="0.8"/>
<line x1="260" y1="111" x2="460" y2="111" stroke="#f3dede" stroke-width="0.8"/>
<line x1="260" y1="119" x2="460" y2="119" stroke="#f3dede" stroke-width="0.8"/>
<line x1="260" y1="127" x2="460" y2="127" stroke="#f3dede" stroke-width="0.8"/>
<line x1="260" y1="135" x2="460" y2="135" stroke="#e8b9b9" stroke-width="1.5"/>
<line x1="260" y1="143" x2="460" y2="143" stroke="#f3dede" stroke-width="0.8"/>
<line x1="260" y1="151" x2="460" y2="151" stroke="#f3dede" stroke-width="0.8"/>
<line x1="260" y1="159" x2="460" y2="159" stroke="#f3dede" stroke-width="0.8"/>
<line x1="260" y1="167" x2="460" y2="167" stroke="#f3dede" stroke-width="0.8"/>
<line x1="260" y1="175" x2="460" y2="175" stroke="#e8b9b9" stroke-width="1.5"/>
<line x1="260" y1="183" x2="460" y2="183" stroke="#f3dede" stroke-width="0.8"/>
<line x1="260" y1="191" x2="460" y2="191" stroke="#f3dede" stroke-width="0.8"/>
<line x1="260" y1="199" x2="460" y2="199" stroke="#f3dede" stroke-width="0.8"/>
<line x1="260" y1="207" x2="460" y2="207" stroke="#f3dede" stroke-width="0.8"/>
<line x1="260" y1="215" x2="460" y2="215" stroke="#e8b9b9" stroke-width="1.5"/>
<line x1="260" y1="223" x2="460" y2="223" stroke="#f3dede" stroke-width="0.8"/>
<line x1="40" y1="300" x2="40" y2="470" stroke="#e8b9b9" stroke-width="1.5"/>
<line x1="48" y1="300" x2="48" y2="470" stroke="#f3dede" stroke-width="0.8"/>
<line x1="56" y1="300" x2="56" y2="470" stroke="#f3dede" stroke-width="0.8"/>
<line x1="64" y1="300" x2="64" y2="470" stroke="#f3dede" stroke-width="0.8"/>
<line x1="72" y1="300" x2="72" y2="470" stroke="#f3dede" stroke-width="0.8"/>
<line x1="80" y1="300" x2="80" y2="470" stroke="#e8b9b9" stroke-width="1.5"/>
<line x1="88" y1="300" x2="88" y2="470" stroke="#f3dede" stroke-width="0.8"/>
<line x1="96" y1="300" x2="96" y2="470" stroke="#f3dede" stroke-width="0.8"/>
<line x1="104" y1="300" x2="104" y2="470" stroke="#f3dede" stroke-width="0.8"/>
<line x1="112" y1="300" x2="112" y2="470" stroke="#f3dede" stroke-width="0.8"/>
<line x1="120" y1="300" x2="120" y2="470" stroke="#e8b9b9" stroke-width="1.5"/>
<line x1="128" y1="300" x2="128" y2="470" stroke="#f3dede" stroke-width="0.8"/>
<line x1="136" y1="300" x2="136" y2="470" stroke="#f3dede" stroke-width="0.8"/>
<line x1="144" y1="300" x2="144" y2="470" stroke="#f3dede" stroke-width="0.8"/>
<line x1="152" y1="300" x2="152" y2="470" stroke="#f3dede" stroke-width="0.8"/>
<line x1="160" y1="300" x2="160" y2="470" stroke="#e8b9b9" stroke-width="1.5"/>
<line x1="168" y1="300" x2="168" y2="470" stroke="#f3dede" stroke-width="0.8"/>
<line x1="176" y1="300" x2="176" y2="470" stroke="#f3dede" stroke-width="0.8"/>
<line x1="184" y1="300" x2="184" y2="470" stroke="#f3dede" stroke-width="0.8"/>
<line x1="192" y1="300" x2="192" y2="470" stroke="#f3dede" stroke-width="0.8"/>
<line x1="200" y1="300" x2="200" y2="470" stroke="#e8b9b9" stroke-width="1.5"/>
<line x1="208" y1="300" x2="208" y2="470" stroke="#f3dede" stroke-width="0.8"/>
<line x1="216" y1="300" x2="216" y2="470" stroke="#f3dede" stroke-width="0.8"/>
<line x1="224" y1="300" x2="224" y2="470" stroke="#f3dede" stroke-width="0.8"/>
<line x1="232" y1="300" x2="232" y2="470" stroke="#f3dede" stroke-width="0.8"/>
<line x1="40" y1="300" x2="240" y2="300" stroke="#e8b9b9" stroke-width="1.5"/>
<line x1="40" y1="308" x2="240" y2="308" stroke="#f3dede" stroke-width="0.8"/>
<line x1="40" y1="316" x2="240" y2="316" stroke="#f3dede" stroke-width="0.8"/>
<line x1="40" y1="324" x2="240" y2="324" stroke="#f3dede" stroke-width="0.8"/>
<line x1="40" y1="332" x2="240" y2="332" stroke="#f3dede" stroke-width="0.8"/>
<line x1="40" y1="340" x2="240" y2="340" stroke="#e8b9b9" stroke-width="1.5"/>
<line x1="40" y1="348" x2="240" y2="348" stroke="#f3dede" stroke-width="0.8"/>
<line x1="40" y1="356" x2="240" y2="356" stroke="#f3dede" stroke-width="0.8"/>
<line x1="40" y1="364" x2="240" y2="364" stroke="#f3dede" stroke-width="0.8"/>
<line x1="40" y1="372" x2="240" y2="372" stroke="#f3dede" stroke-width="0.8"/>
<line x1="40" y1="380" x2="240" y2="380" stroke="#e8b9b9" stroke-width="1.5"/>
<line x1="40" y1="388" x2="240" y2="388" stroke="#f3dede" stroke-width="0.8"/>
<line x1="40" y1="396" x2="240" y2="396" stroke="#f3dede" stroke-width="0.8"/>
<line x1="40" y1="404" x2="240" y2="404" stroke="#f3dede" stroke-width="0.8"/>
<line x1="40" y1="412" x2="240" y2="412" stroke="#f3dede" stroke-width="0.8"/>
<line x1="40" y1="420" x2="240" y2="420" stroke="#e8b9b9" stroke-width="1.5"/>
<line x1="40" y1="428" x2="240" y2="428" stroke="#f3dede" stroke-width="0.8"/>
<line x1="40" y1="436" x2="240" y2="436" stroke="#f3dede" stroke-width="0.8"/>
<line x1="40" y1="444" x2="240" y2="444" stroke="#f3dede" stroke-width="0.8"/>
<line x1="40" y1="452" x2="240" y2="452" stroke="#f3dede" stroke-width="0.8"/>
<line x1="40" y1="460" x2="240" y2="460" stroke="#e8b9b9" stroke-width="1.5"/>
<line x1="40" y1="468" x2="240" y2="468" stroke="#f3dede" stroke-width="0.8"/>
<line x1="260" y1="300" x2="260" y2="470" stroke="#e8b9b9" stroke-width="1.5"/>
<line x1="268" y1="300" x2="268" y2="470" stroke="#f3dede" stroke-width="0.8"/>
<line x1="276" y1="300" x2="276" y2="470" stroke="#f3dede" stroke-width="0.8"/>
<line x1="284" y1="300" x2="284" y2="470" stroke="#f3dede" stroke-width="0.8"/>
<line x1="292" y1="300" x2="292" y2="470" stroke="#f3dede" stroke-width="0.8"/>
<line x1="300" y1="300" x2="300" y2="470" stroke="#e8b9b9" stroke-width="1.5"/>
<line x1="308" y1="300" x2="308" y2="470" stroke="#f3dede" stroke-width="0.8"/>
<line x1="316" y1="300" x2="316" y2="470" stroke="#f3dede" stroke-width="0.8"/>
<line x1="324" y1="300" x2="324" y2="470" stroke="#f3dede" stroke-width="0.8"/>
<line x1="332" y1="300" x2="332" y2="470" stroke="#f3dede" stroke-width="0.8"/>
<line x1="340" y1="300" x2="340" y2="470" stroke="#e8b9b9" stroke-width="1.5"/>
<line x1="348" y1="300" x2="348" y2="470" stroke="#f3dede" stroke-width="0.8"/>
<line x1="356" y1="300" x2="356" y2="470" stroke="#f3dede" stroke-width="0.8"/>
<line x1="364" y1="300" x2="364" y2="470" stroke="#f3dede" stroke-width="0.8"/>
<line x1="372" y1="300" x2="372" y2="470" stroke="#f3dede" stroke-width="0.8"/>
<line x1="380" y1="300" x2="380" y2="470" stroke="#e8b9b9" stroke-width="1.5"/>
<line x1="388" y1="300" x2="388" y2="470" stroke="#f3dede" stroke-width="0.8"/>
<line x1="396" y1="300" x2="396" y2="470" stroke="#f3dede" stroke-width="0.8"/>
<line x1="404" y1="300" x2="404" y2="470" stroke="#f3dede" stroke-width="0.8"/>
<line x1="412" y1="300" x2="412" y2="470" stroke="#f3dede" stroke-width="0.8"/>
<line x1="420" y1="300" x2="420" y2="470" stroke="#e8b9b9" stroke-width="1.5"/>
<line x1="428" y1="300" x2="428" y2="470" stroke="#f3dede" stroke-width="0.8"/>
<line x1="436" y1="300" x2="436" y2="470" stroke="#f3dede" stroke-width="0.8"/>
<line x1="444" y1="300" x2="444" y2="470" stroke="#f3dede" stroke-width="0.8"/>
<line x1="452" y1="300" x2="452" y2="470" stroke="#f3dede" stroke-width="0.8"/>
<line x1="260" y1="300" x2="460" y2="300" stroke="#e8b9b9" stroke-width="1.5"/>
<line x1="260" y1="308" x2="460" y2="308" stroke="#f3dede" stroke-width="0.8"/>
<line x1="260" y1="316" x2="460" y2="316" stroke="#f3dede" stroke-width="0.8"/>
<line x1="260" y1="324" x2="460" y2="324" stroke="#f3dede" stroke-width="0.8"/>
<line x1="260" y1="332" x2="460" y2="332" stroke="#f3dede" stroke-width="0.8"/>
<line x1="260" y1="340" x2="460" y2="340" stroke="#e8b9b9" stroke-width="1.5"/>
<line x1="260" y1="348" x2="460" y2="348" stroke="#f3dede" stroke-width="0.8"/>
<line x1="260" y1="356" x2="460" y2="356" stroke="#f3dede" stroke-width="0.8"/>
<line x1="260" y1="364" x2="460" y2="364" stroke="#f3dede" stroke-width="0.8"/>
<line x1="260" y1="372" x2="460" y2="372" stroke="#f3dede" stroke-width="0.8"/>
<line x1="260" y1="380" x2="460" y2="380" stroke="#e8b9b9" stroke-width="1.5"/>
<line x1="260" y1="388" x2="460" y2="388" stroke="#f3dede" stroke-width="0.8"/>
<line x1="260" y1="396" x2="460" y2="396" stroke="#f3dede" stroke-width="0.8"/>
<line x1="260" y1="404" x2="460" y2="404" stroke="#f3dede" stroke-width="0.8"/>
<line x1="260" y1="412" x2="460" y2="412" stroke="#f3dede" stroke-width="0.8"/>
<line x1="260" y1="420" x2="460" y2="420" stroke="#e8b9b9" stroke-width="1.5"/>
<line x1="260" y1="428" x2="460" y2="428" stroke="#f3dede" stroke-width="0.8"/>
<line x1="260" y1="436" x2="460" y2="436" stroke="#f3dede" stroke-width="0.8"/>
<line x1="260" y1="444" x2="460" y2="444" stroke="#f3dede" stroke-width="0.8"/>
<line x1="260" y1="452" x2="460" y2="452" stroke="#f3dede" stroke-width="0.8"/>
<line x1="260" y1="460" x2="460" y2="460" stroke="#e8b9b9" stroke-width="1.5"/>
<line x1="260" y1="468" x2="460" y2="468" stroke="#f3dede" stroke-width="0.8"/>
<path d="M 50.0,160.0 L 60.0,160.0 L 66.0,138.0 L 74.0,160.0 L 82.0,205.0 L 94.0,90.0 L 106.0,170.0 L 116.0,160.0 L 150.0,160.0" fill="none" stroke="#b5602f" stroke-width="3" stroke-linejoin="round" stroke-linecap="round"/>
<text x="94" y="47" font-size="12" font-weight="700" fill="#b5602f" text-anchor="middle">rSR&#8242; ("rabbit ears")</text>
<path d="M 270.0,160.0 L 280.0,160.0 L 284.0,170.0 L 290.0,85.0 L 302.0,175.0 L 320.0,215.0 L 342.0,178.0 L 370.0,160.0" fill="none" stroke="#b5602f" stroke-width="3" stroke-linejoin="round" stroke-linecap="round"/>
<text x="318" y="47" font-size="12" font-weight="700" fill="#b5602f" text-anchor="middle">Wide, slurred S wave</text>
<path d="M 50.0,400.0 L 60.0,400.0 L 68.0,408.0 L 80.0,470.0 L 100.0,465.0 L 120.0,405.0 L 150.0,400.0" fill="none" stroke="#7c5a9d" stroke-width="3" stroke-linejoin="round" stroke-linecap="round"/>
<text x="100" y="292" font-size="12" font-weight="700" fill="#7c5a9d" text-anchor="middle">Broad QS / rS (no R)</text>
<path d="M 270.0,400.0 L 280.0,400.0 L 290.0,345.0 L 302.0,360.0 L 314.0,322.0 L 330.0,405.0 L 370.0,400.0" fill="none" stroke="#7c5a9d" stroke-width="3" stroke-linejoin="round" stroke-linecap="round"/>
<text x="310" y="292" font-size="12" font-weight="700" fill="#7c5a9d" text-anchor="middle">Broad, notched R (no Q)</text>
<text x="450" y="515" font-size="13" fill="#2b2620" text-anchor="middle">Both require QRS duration &#8805; 120 ms.</text>
<text x="450" y="535" font-size="12.5" fill="#2b2620" text-anchor="middle">Mnemonic <tspan font-weight="700">"WiLLiaM MoRRoW"</tspan>: LBBB = W in V1, M in V6; RBBB = M in V1, W in V6.</text>
</svg>