<svg viewBox="0 0 900 340" xmlns="http://www.w3.org/2000/svg" font-family="IBM Plex Mono, monospace">
<rect width="900" height="340" fill="#fffdf8"/>
<line x1="0" y1="10" x2="0" y2="270" stroke="#e8b9b9" stroke-width="1.6"/>
<line x1="8" y1="10" x2="8" y2="270" stroke="#f3dede" stroke-width="1"/>
<line x1="16" y1="10" x2="16" y2="270" stroke="#f3dede" stroke-width="1"/>
<line x1="24" y1="10" x2="24" y2="270" stroke="#f3dede" stroke-width="1"/>
<line x1="32" y1="10" x2="32" y2="270" stroke="#f3dede" stroke-width="1"/>
<line x1="40" y1="10" x2="40" y2="270" stroke="#e8b9b9" stroke-width="1.6"/>
<line x1="48" y1="10" x2="48" y2="270" stroke="#f3dede" stroke-width="1"/>
<line x1="56" y1="10" x2="56" y2="270" stroke="#f3dede" stroke-width="1"/>
<line x1="64" y1="10" x2="64" y2="270" stroke="#f3dede" stroke-width="1"/>
<line x1="72" y1="10" x2="72" y2="270" stroke="#f3dede" stroke-width="1"/>
<line x1="80" y1="10" x2="80" y2="270" stroke="#e8b9b9" stroke-width="1.6"/>
<line x1="88" y1="10" x2="88" y2="270" stroke="#f3dede" stroke-width="1"/>
<line x1="96" y1="10" x2="96" y2="270" stroke="#f3dede" stroke-width="1"/>
<line x1="104" y1="10" x2="104" y2="270" stroke="#f3dede" stroke-width="1"/>
<line x1="112" y1="10" x2="112" y2="270" stroke="#f3dede" stroke-width="1"/>
<line x1="120" y1="10" x2="120" y2="270" stroke="#e8b9b9" stroke-width="1.6"/>
<line x1="128" y1="10" x2="128" y2="270" stroke="#f3dede" stroke-width="1"/>
<line x1="136" y1="10" x2="136" y2="270" stroke="#f3dede" stroke-width="1"/>
<line x1="144" y1="10" x2="144" y2="270" stroke="#f3dede" stroke-width="1"/>
<line x1="152" y1="10" x2="152" y2="270" stroke="#f3dede" stroke-width="1"/>
<line x1="160" y1="10" x2="160" y2="270" stroke="#e8b9b9" stroke-width="1.6"/>
<line x1="168" y1="10" x2="168" y2="270" stroke="#f3dede" stroke-width="1"/>
<line x1="176" y1="10" x2="176" y2="270" stroke="#f3dede" stroke-width="1"/>
<line x1="184" y1="10" x2="184" y2="270" stroke="#f3dede" stroke-width="1"/>
<line x1="192" y1="10" x2="192" y2="270" stroke="#f3dede" stroke-width="1"/>
<line x1="200" y1="10" x2="200" y2="270" stroke="#e8b9b9" stroke-width="1.6"/>
<line x1="208" y1="10" x2="208" y2="270" stroke="#f3dede" stroke-width="1"/>
<line x1="216" y1="10" x2="216" y2="270" stroke="#f3dede" stroke-width="1"/>
<line x1="224" y1="10" x2="224" y2="270" stroke="#f3dede" stroke-width="1"/>
<line x1="232" y1="10" x2="232" y2="270" stroke="#f3dede" stroke-width="1"/>
<line x1="240" y1="10" x2="240" y2="270" stroke="#e8b9b9" stroke-width="1.6"/>
<line x1="248" y1="10" x2="248" y2="270" stroke="#f3dede" stroke-width="1"/>
<line x1="256" y1="10" x2="256" y2="270" stroke="#f3dede" stroke-width="1"/>
<line x1="264" y1="10" x2="264" y2="270" stroke="#f3dede" stroke-width="1"/>
<line x1="272" y1="10" x2="272" y2="270" stroke="#f3dede" stroke-width="1"/>
<line x1="280" y1="10" x2="280" y2="270" stroke="#e8b9b9" stroke-width="1.6"/>
<line x1="288" y1="10" x2="288" y2="270" stroke="#f3dede" stroke-width="1"/>
<line x1="296" y1="10" x2="296" y2="270" stroke="#f3dede" stroke-width="1"/>
<line x1="304" y1="10" x2="304" y2="270" stroke="#f3dede" stroke-width="1"/>
<line x1="312" y1="10" x2="312" y2="270" stroke="#f3dede" stroke-width="1"/>
<line x1="320" y1="10" x2="320" y2="270" stroke="#e8b9b9" stroke-width="1.6"/>
<line x1="328" y1="10" x2="328" y2="270" stroke="#f3dede" stroke-width="1"/>
<line x1="336" y1="10" x2="336" y2="270" stroke="#f3dede" stroke-width="1"/>
<line x1="344" y1="10" x2="344" y2="270" stroke="#f3dede" stroke-width="1"/>
<line x1="352" y1="10" x2="352" y2="270" stroke="#f3dede" stroke-width="1"/>
<line x1="360" y1="10" x2="360" y2="270" stroke="#e8b9b9" stroke-width="1.6"/>
<line x1="368" y1="10" x2="368" y2="270" stroke="#f3dede" stroke-width="1"/>
<line x1="376" y1="10" x2="376" y2="270" stroke="#f3dede" stroke-width="1"/>
<line x1="384" y1="10" x2="384" y2="270" stroke="#f3dede" stroke-width="1"/>
<line x1="392" y1="10" x2="392" y2="270" stroke="#f3dede" stroke-width="1"/>
<line x1="400" y1="10" x2="400" y2="270" stroke="#e8b9b9" stroke-width="1.6"/>
<line x1="408" y1="10" x2="408" y2="270" stroke="#f3dede" stroke-width="1"/>
<line x1="416" y1="10" x2="416" y2="270" stroke="#f3dede" stroke-width="1"/>
<line x1="424" y1="10" x2="424" y2="270" stroke="#f3dede" stroke-width="1"/>
<line x1="432" y1="10" x2="432" y2="270" stroke="#f3dede" stroke-width="1"/>
<line x1="440" y1="10" x2="440" y2="270" stroke="#e8b9b9" stroke-width="1.6"/>
<line x1="448" y1="10" x2="448" y2="270" stroke="#f3dede" stroke-width="1"/>
<line x1="456" y1="10" x2="456" y2="270" stroke="#f3dede" stroke-width="1"/>
<line x1="464" y1="10" x2="464" y2="270" stroke="#f3dede" stroke-width="1"/>
<line x1="472" y1="10" x2="472" y2="270" stroke="#f3dede" stroke-width="1"/>
<line x1="480" y1="10" x2="480" y2="270" stroke="#e8b9b9" stroke-width="1.6"/>
<line x1="488" y1="10" x2="488" y2="270" stroke="#f3dede" stroke-width="1"/>
<line x1="496" y1="10" x2="496" y2="270" stroke="#f3dede" stroke-width="1"/>
<line x1="504" y1="10" x2="504" y2="270" stroke="#f3dede" stroke-width="1"/>
<line x1="512" y1="10" x2="512" y2="270" stroke="#f3dede" stroke-width="1"/>
<line x1="520" y1="10" x2="520" y2="270" stroke="#e8b9b9" stroke-width="1.6"/>
<line x1="528" y1="10" x2="528" y2="270" stroke="#f3dede" stroke-width="1"/>
<line x1="536" y1="10" x2="536" y2="270" stroke="#f3dede" stroke-width="1"/>
<line x1="544" y1="10" x2="544" y2="270" stroke="#f3dede" stroke-width="1"/>
<line x1="552" y1="10" x2="552" y2="270" stroke="#f3dede" stroke-width="1"/>
<line x1="560" y1="10" x2="560" y2="270" stroke="#e8b9b9" stroke-width="1.6"/>
<line x1="568" y1="10" x2="568" y2="270" stroke="#f3dede" stroke-width="1"/>
<line x1="576" y1="10" x2="576" y2="270" stroke="#f3dede" stroke-width="1"/>
<line x1="584" y1="10" x2="584" y2="270" stroke="#f3dede" stroke-width="1"/>
<line x1="592" y1="10" x2="592" y2="270" stroke="#f3dede" stroke-width="1"/>
<line x1="600" y1="10" x2="600" y2="270" stroke="#e8b9b9" stroke-width="1.6"/>
<line x1="608" y1="10" x2="608" y2="270" stroke="#f3dede" stroke-width="1"/>
<line x1="616" y1="10" x2="616" y2="270" stroke="#f3dede" stroke-width="1"/>
<line x1="624" y1="10" x2="624" y2="270" stroke="#f3dede" stroke-width="1"/>
<line x1="632" y1="10" x2="632" y2="270" stroke="#f3dede" stroke-width="1"/>
<line x1="640" y1="10" x2="640" y2="270" stroke="#e8b9b9" stroke-width="1.6"/>
<line x1="648" y1="10" x2="648" y2="270" stroke="#f3dede" stroke-width="1"/>
<line x1="656" y1="10" x2="656" y2="270" stroke="#f3dede" stroke-width="1"/>
<line x1="664" y1="10" x2="664" y2="270" stroke="#f3dede" stroke-width="1"/>
<line x1="672" y1="10" x2="672" y2="270" stroke="#f3dede" stroke-width="1"/>
<line x1="680" y1="10" x2="680" y2="270" stroke="#e8b9b9" stroke-width="1.6"/>
<line x1="688" y1="10" x2="688" y2="270" stroke="#f3dede" stroke-width="1"/>
<line x1="696" y1="10" x2="696" y2="270" stroke="#f3dede" stroke-width="1"/>
<line x1="704" y1="10" x2="704" y2="270" stroke="#f3dede" stroke-width="1"/>
<line x1="712" y1="10" x2="712" y2="270" stroke="#f3dede" stroke-width="1"/>
<line x1="720" y1="10" x2="720" y2="270" stroke="#e8b9b9" stroke-width="1.6"/>
<line x1="728" y1="10" x2="728" y2="270" stroke="#f3dede" stroke-width="1"/>
<line x1="736" y1="10" x2="736" y2="270" stroke="#f3dede" stroke-width="1"/>
<line x1="744" y1="10" x2="744" y2="270" stroke="#f3dede" stroke-width="1"/>
<line x1="752" y1="10" x2="752" y2="270" stroke="#f3dede" stroke-width="1"/>
<line x1="760" y1="10" x2="760" y2="270" stroke="#e8b9b9" stroke-width="1.6"/>
<line x1="768" y1="10" x2="768" y2="270" stroke="#f3dede" stroke-width="1"/>
<line x1="776" y1="10" x2="776" y2="270" stroke="#f3dede" stroke-width="1"/>
<line x1="784" y1="10" x2="784" y2="270" stroke="#f3dede" stroke-width="1"/>
<line x1="792" y1="10" x2="792" y2="270" stroke="#f3dede" stroke-width="1"/>
<line x1="800" y1="10" x2="800" y2="270" stroke="#e8b9b9" stroke-width="1.6"/>
<line x1="808" y1="10" x2="808" y2="270" stroke="#f3dede" stroke-width="1"/>
<line x1="816" y1="10" x2="816" y2="270" stroke="#f3dede" stroke-width="1"/>
<line x1="824" y1="10" x2="824" y2="270" stroke="#f3dede" stroke-width="1"/>
<line x1="832" y1="10" x2="832" y2="270" stroke="#f3dede" stroke-width="1"/>
<line x1="840" y1="10" x2="840" y2="270" stroke="#e8b9b9" stroke-width="1.6"/>
<line x1="848" y1="10" x2="848" y2="270" stroke="#f3dede" stroke-width="1"/>
<line x1="856" y1="10" x2="856" y2="270" stroke="#f3dede" stroke-width="1"/>
<line x1="864" y1="10" x2="864" y2="270" stroke="#f3dede" stroke-width="1"/>
<line x1="872" y1="10" x2="872" y2="270" stroke="#f3dede" stroke-width="1"/>
<line x1="880" y1="10" x2="880" y2="270" stroke="#e8b9b9" stroke-width="1.6"/>
<line x1="888" y1="10" x2="888" y2="270" stroke="#f3dede" stroke-width="1"/>
<line x1="896" y1="10" x2="896" y2="270" stroke="#f3dede" stroke-width="1"/>
<line x1="0" y1="10" x2="900" y2="10" stroke="#e8b9b9" stroke-width="1.6"/>
<line x1="0" y1="18" x2="900" y2="18" stroke="#f3dede" stroke-width="1"/>
<line x1="0" y1="26" x2="900" y2="26" stroke="#f3dede" stroke-width="1"/>
<line x1="0" y1="34" x2="900" y2="34" stroke="#f3dede" stroke-width="1"/>
<line x1="0" y1="42" x2="900" y2="42" stroke="#f3dede" stroke-width="1"/>
<line x1="0" y1="50" x2="900" y2="50" stroke="#e8b9b9" stroke-width="1.6"/>
<line x1="0" y1="58" x2="900" y2="58" stroke="#f3dede" stroke-width="1"/>
<line x1="0" y1="66" x2="900" y2="66" stroke="#f3dede" stroke-width="1"/>
<line x1="0" y1="74" x2="900" y2="74" stroke="#f3dede" stroke-width="1"/>
<line x1="0" y1="82" x2="900" y2="82" stroke="#f3dede" stroke-width="1"/>
<line x1="0" y1="90" x2="900" y2="90" stroke="#e8b9b9" stroke-width="1.6"/>
<line x1="0" y1="98" x2="900" y2="98" stroke="#f3dede" stroke-width="1"/>
<line x1="0" y1="106" x2="900" y2="106" stroke="#f3dede" stroke-width="1"/>
<line x1="0" y1="114" x2="900" y2="114" stroke="#f3dede" stroke-width="1"/>
<line x1="0" y1="122" x2="900" y2="122" stroke="#f3dede" stroke-width="1"/>
<line x1="0" y1="130" x2="900" y2="130" stroke="#e8b9b9" stroke-width="1.6"/>
<line x1="0" y1="138" x2="900" y2="138" stroke="#f3dede" stroke-width="1"/>
<line x1="0" y1="146" x2="900" y2="146" stroke="#f3dede" stroke-width="1"/>
<line x1="0" y1="154" x2="900" y2="154" stroke="#f3dede" stroke-width="1"/>
<line x1="0" y1="162" x2="900" y2="162" stroke="#f3dede" stroke-width="1"/>
<line x1="0" y1="170" x2="900" y2="170" stroke="#e8b9b9" stroke-width="1.6"/>
<line x1="0" y1="178" x2="900" y2="178" stroke="#f3dede" stroke-width="1"/>
<line x1="0" y1="186" x2="900" y2="186" stroke="#f3dede" stroke-width="1"/>
<line x1="0" y1="194" x2="900" y2="194" stroke="#f3dede" stroke-width="1"/>
<line x1="0" y1="202" x2="900" y2="202" stroke="#f3dede" stroke-width="1"/>
<line x1="0" y1="210" x2="900" y2="210" stroke="#e8b9b9" stroke-width="1.6"/>
<line x1="0" y1="218" x2="900" y2="218" stroke="#f3dede" stroke-width="1"/>
<line x1="0" y1="226" x2="900" y2="226" stroke="#f3dede" stroke-width="1"/>
<line x1="0" y1="234" x2="900" y2="234" stroke="#f3dede" stroke-width="1"/>
<line x1="0" y1="242" x2="900" y2="242" stroke="#f3dede" stroke-width="1"/>
<line x1="0" y1="250" x2="900" y2="250" stroke="#e8b9b9" stroke-width="1.6"/>
<line x1="0" y1="258" x2="900" y2="258" stroke="#f3dede" stroke-width="1"/>
<line x1="0" y1="266" x2="900" y2="266" stroke="#f3dede" stroke-width="1"/>
<path d="M 0,200 L 30,200 L 36,206 L 40,130 L 44,214 L 50,200 L 230,200 L 236,206 L 240,130 L 244,214 L 250,200 L 900,200" fill="none" stroke="#1f3d2c" stroke-width="3" stroke-linejoin="round" stroke-linecap="round"/>
<line x1="40" y1="110" x2="40" y2="235" stroke="#a33c2f" stroke-width="1.3" stroke-dasharray="none"/>
<line x1="80" y1="110" x2="80" y2="235" stroke="#c9c0ad" stroke-width="1.3" stroke-dasharray="4,3"/>
<line x1="120" y1="110" x2="120" y2="235" stroke="#c9c0ad" stroke-width="1.3" stroke-dasharray="4,3"/>
<line x1="160" y1="110" x2="160" y2="235" stroke="#c9c0ad" stroke-width="1.3" stroke-dasharray="4,3"/>
<line x1="200" y1="110" x2="200" y2="235" stroke="#c9c0ad" stroke-width="1.3" stroke-dasharray="4,3"/>
<line x1="240" y1="110" x2="240" y2="235" stroke="#a33c2f" stroke-width="1.3" stroke-dasharray="none"/>
<line x1="280" y1="110" x2="280" y2="235" stroke="#c9c0ad" stroke-width="1.3" stroke-dasharray="4,3"/>
<text x="80" y="255" font-size="14" font-weight="500" fill="#8a8578" text-anchor="middle">300</text>
<text x="120" y="255" font-size="14" font-weight="500" fill="#8a8578" text-anchor="middle">150</text>
<text x="160" y="255" font-size="14" font-weight="500" fill="#8a8578" text-anchor="middle">100</text>
<text x="200" y="255" font-size="14" font-weight="500" fill="#8a8578" text-anchor="middle">75</text>
<text x="240" y="255" font-size="14" font-weight="700" fill="#3f7a4f" text-anchor="middle">60</text>
<text x="280" y="255" font-size="14" font-weight="500" fill="#8a8578" text-anchor="middle">50</text>
<text x="40" y="255" font-size="12" fill="#a33c2f" font-weight="700" text-anchor="middle">R wave</text>
<text x="240" y="100" font-size="13" font-weight="700" fill="#3f7a4f" text-anchor="middle">Next R wave &#8594; rate = 60 bpm</text>
<text x="20" y="305" font-size="13" fill="#2b2620">Count big boxes between two consecutive R waves, then read off: <tspan font-weight="700">300 &#8211; 150 &#8211; 100 &#8211; 75 &#8211; 60 &#8211; 50</tspan></text>
<text x="20" y="325" font-size="12" fill="#6b6357">Here, the next R wave lands on the 5th big box &#8594; heart rate &#8776; 60 bpm.</text>
</svg>